<?xml version="1.0" encoding="UTF-8" standalone="no"?>
<!-- Created with Inkscape (http://www.inkscape.org/) -->

<svg
   xmlns:dc="http://purl.org/dc/elements/1.1/"
   xmlns:cc="http://creativecommons.org/ns#"
   xmlns:rdf="http://www.w3.org/1999/02/22-rdf-syntax-ns#"
   xmlns:svg="http://www.w3.org/2000/svg"
   xmlns="http://www.w3.org/2000/svg"
   xmlns:sodipodi="http://sodipodi.sourceforge.net/DTD/sodipodi-0.dtd"
   xmlns:inkscape="http://www.inkscape.org/namespaces/inkscape"
   id="svg2"
   version="1.1"
   inkscape:version="0.92.4 (5da689c313, 2019-01-14)"
   width="194.93852"
   height="90.180679"
   xml:space="preserve"
   sodipodi:docname="micron-logo.svg"><metadata
     id="metadata8"><rdf:RDF><cc:Work
         rdf:about=""><dc:format>image/svg+xml</dc:format><dc:type
           rdf:resource="http://purl.org/dc/dcmitype/StillImage" /><dc:title /></cc:Work></rdf:RDF></metadata><defs
     id="defs6"><clipPath
       clipPathUnits="userSpaceOnUse"
       id="clipPath20"><path
         d="M 0,566.93 H 595.28 V 0 H 0 Z"
         id="path22"
         inkscape:connector-curvature="0" /></clipPath><clipPath
       clipPathUnits="userSpaceOnUse"
       id="clipPath36"><path
         d="M 0,566.93 H 595.28 V 0 H 0 Z"
         id="path38"
         inkscape:connector-curvature="0" /></clipPath><clipPath
       clipPathUnits="userSpaceOnUse"
       id="clipPath52"><path
         d="M 0,566.93 H 595.28 V 0 H 0 Z"
         id="path54"
         inkscape:connector-curvature="0" /></clipPath><clipPath
       clipPathUnits="userSpaceOnUse"
       id="clipPath68"><path
         d="M 0,566.93 H 595.28 V 0 H 0 Z"
         id="path70"
         inkscape:connector-curvature="0" /></clipPath><clipPath
       clipPathUnits="userSpaceOnUse"
       id="clipPath84"><path
         d="M 0,566.93 H 595.28 V 0 H 0 Z"
         id="path86"
         inkscape:connector-curvature="0" /></clipPath><clipPath
       clipPathUnits="userSpaceOnUse"
       id="clipPath100"><path
         d="M 0,566.93 H 595.28 V 0 H 0 Z"
         id="path102"
         inkscape:connector-curvature="0" /></clipPath></defs><sodipodi:namedview
     pagecolor="#ffffff"
     bordercolor="#666666"
     borderopacity="1"
     objecttolerance="10"
     gridtolerance="10"
     guidetolerance="10"
     inkscape:pageopacity="0"
     inkscape:pageshadow="2"
     inkscape:window-width="2560"
     inkscape:window-height="1376"
     id="namedview4"
     showgrid="false"
     inkscape:zoom="3.7677107"
     inkscape:cx="-9.4791237"
     inkscape:cy="-16.851933"
     inkscape:window-x="0"
     inkscape:window-y="27"
     inkscape:window-maximized="1"
     inkscape:current-layer="g10"
     fit-margin-top="0"
     fit-margin-left="0"
     fit-margin-right="0"
     fit-margin-bottom="0" /><g
     id="g10"
     inkscape:groupmode="layer"
     inkscape:label="micron logo single"
     transform="matrix(1.25,0,0,-1.25,-6.3319499,515.96087)"><g
   id="g16"
   transform="translate(-203.8906,88.883095)"><g
     id="g18"
     clip-path="url(#clipPath20)"><g
       id="g24"
       transform="translate(261.3638,318.4043)"><path
         d="m 0,0 c -0.519,-0.576 -0.778,-1.27 -0.778,-2.082 0,-0.796 0.259,-1.481 0.778,-2.057 0.518,-0.575 1.136,-0.863 1.853,-0.863 0.731,0 1.357,0.288 1.876,0.863 0.518,0.576 0.777,1.261 0.777,2.057 C 4.506,-1.27 4.247,-0.576 3.729,0 3.21,0.575 2.584,0.863 1.853,0.863 1.136,0.863 0.518,0.575 0,0 Z m 0.256,-38.137 h 3.216 v 27.625 H 0.256 Z"
         style="fill:#be2835;fill-opacity:1;stroke:#be2835;stroke-width:2;stroke-linecap:butt;stroke-linejoin:miter;stroke-miterlimit:10;stroke-dasharray:none;stroke-opacity:1"
         id="path26"
         inkscape:connector-curvature="0" /></g></g></g><g
   id="g32"
   transform="translate(-203.8906,88.883095)"><g
     id="g34"
     clip-path="url(#clipPath36)"><g
       id="g40"
       transform="translate(292.106,305.582)"><path
         d="m 0,0 c -1.072,0.897 -2.377,1.625 -3.917,2.184 -1.539,0.558 -3.136,0.837 -4.79,0.837 -2.634,0 -5.016,-0.643 -7.144,-1.929 -2.129,-1.287 -3.802,-3.077 -5.02,-5.37 -1.217,-2.294 -1.826,-4.778 -1.826,-7.452 0,-3.978 1.301,-7.355 3.905,-10.131 2.604,-2.777 5.881,-4.164 9.833,-4.164 2.573,0 4.866,0.548 6.88,1.644 2.014,1.096 3.618,2.639 4.813,4.627 l -2.55,1.854 c -2.326,-3.234 -5.324,-4.85 -8.995,-4.85 -2.004,0 -3.813,0.49 -5.427,1.471 -1.614,0.981 -2.884,2.359 -3.809,4.134 -0.925,1.775 -1.388,3.669 -1.388,5.681 0,3.094 1.006,5.723 3.018,7.887 2.011,2.165 4.539,3.247 7.583,3.247 3.809,0 6.815,-1.617 9.018,-4.85 l 2.55,1.752 C 1.983,-2.04 1.072,-0.897 0,0 Z"
         style="fill:#be2835;fill-opacity:1;stroke:#be2835;stroke-width:2;stroke-linecap:butt;stroke-linejoin:miter;stroke-miterlimit:10;stroke-dasharray:none;stroke-opacity:1"
         id="path42"
         inkscape:connector-curvature="0" /></g></g></g><g
   id="g48"
   transform="translate(-203.8906,88.883095)"
   style="fill:#be2835;fill-opacity:1"><g
     id="g50"
     clip-path="url(#clipPath52)"
     style="fill:#be2835;fill-opacity:1"><g
       id="g56"
       transform="translate(298.8608,280.2676)"
       style="fill:#be2835;fill-opacity:1"><path
         d="m 0,0 h 3.285 v 9.344 c 0,4.79 0.199,7.972 0.597,9.547 0.521,2.047 1.279,3.558 2.275,4.532 0.995,0.973 2.029,1.46 3.101,1.46 0.46,0 1.026,-0.161 1.7,-0.483 l 1.677,2.996 c -1.01,0.626 -1.961,0.94 -2.848,0.94 -1.18,0 -2.313,-0.394 -3.401,-1.181 C 5.299,26.368 4.265,25.179 3.285,23.588 v 4.037 H 0 Z"
         style="fill:#be2835;fill-opacity:1;stroke:#be2835;stroke-width:2;stroke-linecap:butt;stroke-linejoin:miter;stroke-miterlimit:10;stroke-dasharray:none;stroke-opacity:1"
         id="path58"
         inkscape:connector-curvature="0" /></g></g></g><g
   id="g64"
   transform="translate(-203.8906,88.883095)"><g
     id="g66"
     clip-path="url(#clipPath68)"><g
       id="g72"
       transform="translate(315.335,303.957)"><path
         d="m 0,0 c -2.302,-2.81 -3.452,-6.128 -3.452,-9.953 0,-3.86 1.216,-7.233 3.647,-10.118 2.432,-2.887 5.566,-4.329 9.402,-4.329 3.82,0 6.945,1.442 9.378,4.329 2.431,2.885 3.647,6.258 3.647,10.118 0,3.842 -1.15,7.168 -3.452,9.978 C 16.638,3.106 13.447,4.646 9.597,4.646 5.73,4.646 2.531,3.098 0,0 Z m 16.466,-2.107 c 1.93,-2.184 2.894,-4.825 2.894,-7.922 0,-1.998 -0.438,-3.86 -1.314,-5.586 -0.877,-1.727 -2.06,-3.06 -3.55,-3.999 -1.492,-0.94 -3.128,-1.409 -4.911,-1.409 -1.783,0 -3.42,0.469 -4.911,1.409 -1.49,0.939 -2.674,2.272 -3.55,3.999 -0.876,1.726 -1.314,3.588 -1.314,5.586 0,3.097 0.961,5.738 2.882,7.922 1.921,2.183 4.219,3.275 6.893,3.275 2.659,0 4.953,-1.092 6.881,-3.275 z"
         style="fill:#be2835;fill-opacity:1;stroke:#be2835;stroke-width:2;stroke-linecap:butt;stroke-linejoin:miter;stroke-miterlimit:10;stroke-dasharray:none;stroke-opacity:1"
         id="path74"
         inkscape:connector-curvature="0" /></g></g></g><g
   id="g80"
   transform="translate(-203.8906,88.883095)"><g
     id="g82"
     clip-path="url(#clipPath84)"><g
       id="g88"
       transform="translate(342.0254,280.2676)"><path
         d="m 0,0 h 3.216 v 10.131 c 0,3.639 0.153,6.144 0.46,7.515 0.489,2.099 1.505,3.86 3.044,5.282 1.539,1.422 3.282,2.133 5.227,2.133 1.7,0 3.079,-0.462 4.136,-1.384 1.057,-0.923 1.771,-2.298 2.144,-4.126 0.239,-1.067 0.358,-3.191 0.358,-6.373 V 0 h 3.216 v 14.219 c 0,3.758 -0.345,6.525 -1.033,8.302 -0.69,1.778 -1.758,3.191 -3.205,4.241 -1.448,1.049 -3.106,1.574 -4.974,1.574 -1.838,0 -3.538,-0.47 -5.1,-1.409 -1.562,-0.94 -2.986,-2.358 -4.273,-4.253 v 4.951 H 0 Z"
         style="fill:#be2835;fill-opacity:1;stroke:#be2835;stroke-width:2;stroke-linecap:butt;stroke-linejoin:miter;stroke-miterlimit:10;stroke-dasharray:none;stroke-opacity:1"
         id="path90"
         inkscape:connector-curvature="0" /></g></g></g><text
   transform="scale(1.0107772,-0.9893377)"
   id="text92"
   x="21.451408"
   y="-344.73254"
   style="line-height:0%"><tspan
     style="font-variant:normal;font-weight:normal;font-stretch:normal;font-size:34.36642838px;line-height:1.25;font-family:'Times New Roman';-inkscape-font-specification:TimesNewRomanPSMT;writing-mode:lr-tb;fill:#ffffff;fill-opacity:1;fill-rule:nonzero;stroke:none"
     x="21.451408 43.514656 69.701866 87.434944 110.87286 135.85724"
     y="-344.73254"
     sodipodi:role="line"
     id="tspan94">OXFORD</tspan></text>


<g
   id="g96"
   transform="translate(-203.8906,88.883095)"><g
     id="g98"
     clip-path="url(#clipPath100)"><g
       id="g104"
       transform="translate(255.3398,281.8047)"><path
         d="m 0,0 c 0,0 -0.033,36.329 0,41.552 0,0 -5.636,-26.037 -9.804,-34.948 -1.44,-3.076 -3.747,-6.792 -6.819,-7.16 -3.978,-0.475 -5.08,2.192 -6.185,5.695 -1.717,5.455 -1.865,36.376 -1.865,36.376 -0.546,-15.763 -10.024,-52.711 -18.326,-68.194"
         style="fill:none;stroke:#be2835;stroke-width:5;stroke-linecap:square;stroke-linejoin:bevel;stroke-miterlimit:10;stroke-dasharray:none;stroke-opacity:1"
         id="path106"
         inkscape:connector-curvature="0" /></g></g></g></g></svg>