<?xml version="1.0" encoding="UTF-8" standalone="no"?>
<svg
   xmlns:dc="http://purl.org/dc/elements/1.1/"
   xmlns:cc="http://creativecommons.org/ns#"
   xmlns:rdf="http://www.w3.org/1999/02/22-rdf-syntax-ns#"
   xmlns:svg="http://www.w3.org/2000/svg"
   xmlns="http://www.w3.org/2000/svg"
   xmlns:xlink="http://www.w3.org/1999/xlink"
   height="100%"
   width="100%"
   version="1.1"
   id="svg2"
   viewBox="0 -410 1387 1317">
  <metadata
     id="metadata8">
    <rdf:RDF>
      <cc:Work
         rdf:about="">
        <dc:format>image/svg+xml</dc:format>
        <dc:type
           rdf:resource="http://purl.org/dc/dcmitype/StillImage" />
        <dc:title>SPEKcheck logo</dc:title>
      </cc:Work>
    </rdf:RDF>
  </metadata>
  <defs
     id="defs10">
    <clipPath
       id="clipPath3055"
       clipPathUnits="userSpaceOnUse">
      <g
         id="g3896"
         transform="matrix(1,0,0,-1,-148,1158)">
        <path
           style="fill:currentColor"
           id="path3894"
           d="m 1500,1568 35,-50 Q 1321,1357 1059,1022 797,687 659,396 l -74,-50 q -92,-64 -125,-95 -13,47 -57,154 l -28,65 Q 315,610 263.5,677 212,744 148,766 q 108,114 198,114 77,0 171,-209 l 31,-70 q 169,285 434,554 265,269 518,413 z" />
      </g>
    </clipPath>
  </defs>
  <image
     xlink:href="visible-spectrum.png"
     y="-410"
     x="0"
     id="image176"
     preserveAspectRatio="none"
     height="1317"
     width="1387"
     clip-path="url(#clipPath3055)" />
</svg>
